<mxfile host="65bd71144e">
    <diagram id="XTsZeTQgIvXgSv2_xNjD" name="Page-1">
        <mxGraphModel dx="1528" dy="1063" grid="1" gridSize="10" guides="1" tooltips="1" connect="1" arrows="1" fold="1" page="1" pageScale="1" pageWidth="850" pageHeight="1100" background="none" math="0" shadow="0">
            <root>
                <mxCell id="0"/>
                <mxCell id="1" parent="0"/>
                <mxCell id="38" value="" style="rounded=0;whiteSpace=wrap;html=1;" vertex="1" parent="1">
                    <mxGeometry x="80" y="160" width="730" height="820" as="geometry"/>
                </mxCell>
                <mxCell id="13" style="edgeStyle=none;html=1;entryX=0;entryY=0.5;entryDx=0;entryDy=0;rounded=0;" edge="1" parent="1" source="2" target="3">
                    <mxGeometry relative="1" as="geometry"/>
                </mxCell>
                <mxCell id="14" value="has" style="edgeLabel;html=1;align=center;verticalAlign=middle;resizable=0;points=[];rounded=0;" vertex="1" connectable="0" parent="13">
                    <mxGeometry x="-0.1165" y="-1" relative="1" as="geometry">
                        <mxPoint x="8" y="-1" as="offset"/>
                    </mxGeometry>
                </mxCell>
                <mxCell id="17" value="has" style="edgeStyle=none;html=1;exitX=1;exitY=1;exitDx=0;exitDy=0;rounded=0;" edge="1" parent="1" source="2" target="5">
                    <mxGeometry relative="1" as="geometry"/>
                </mxCell>
                <mxCell id="19" value="has" style="edgeStyle=none;html=1;exitX=0.5;exitY=0;exitDx=0;exitDy=0;rounded=0;" edge="1" parent="1" source="2" target="8">
                    <mxGeometry relative="1" as="geometry"/>
                </mxCell>
                <mxCell id="32" style="html=1;exitX=0;exitY=0;exitDx=0;exitDy=0;entryX=1;entryY=1;entryDx=0;entryDy=0;rounded=0;" edge="1" parent="1" source="2" target="9">
                    <mxGeometry relative="1" as="geometry"/>
                </mxCell>
                <mxCell id="33" value="has" style="edgeLabel;html=1;align=center;verticalAlign=middle;resizable=0;points=[];rounded=0;" vertex="1" connectable="0" parent="32">
                    <mxGeometry x="-0.2012" y="-3" relative="1" as="geometry">
                        <mxPoint as="offset"/>
                    </mxGeometry>
                </mxCell>
                <mxCell id="34" value="has" style="edgeStyle=none;html=1;exitX=0;exitY=0.5;exitDx=0;exitDy=0;entryX=1;entryY=0.5;entryDx=0;entryDy=0;rounded=0;" edge="1" parent="1" source="2" target="11">
                    <mxGeometry relative="1" as="geometry"/>
                </mxCell>
                <mxCell id="2" value="Host" style="ellipse;aspect=fixed;strokeWidth=2;whiteSpace=wrap;rounded=0;fillColor=#d5e8d4;strokeColor=#82b366;" vertex="1" parent="1">
                    <mxGeometry x="330" y="420" width="47" height="47" as="geometry"/>
                </mxCell>
                <mxCell id="20" value="runs" style="edgeStyle=none;html=1;exitX=1;exitY=0.5;exitDx=0;exitDy=0;entryX=0;entryY=0.5;entryDx=0;entryDy=0;rounded=0;" edge="1" parent="1" source="3" target="4">
                    <mxGeometry relative="1" as="geometry"/>
                </mxCell>
                <mxCell id="3" value="Port" style="ellipse;aspect=fixed;strokeWidth=2;whiteSpace=wrap;rounded=0;fillColor=#d0cee2;strokeColor=#56517e;" vertex="1" parent="1">
                    <mxGeometry x="481.5" y="420" width="47" height="47" as="geometry"/>
                </mxCell>
                <mxCell id="21" value="has" style="edgeStyle=none;html=1;exitX=0;exitY=1;exitDx=0;exitDy=0;entryX=1;entryY=0;entryDx=0;entryDy=0;rounded=0;" edge="1" parent="1" source="4" target="5">
                    <mxGeometry relative="1" as="geometry"/>
                </mxCell>
                <mxCell id="22" value="needs" style="edgeStyle=none;html=1;exitX=0;exitY=0;exitDx=0;exitDy=0;entryX=1;entryY=1;entryDx=0;entryDy=0;rounded=0;" edge="1" parent="1" source="4" target="6">
                    <mxGeometry relative="1" as="geometry"/>
                </mxCell>
                <mxCell id="4" value="Service" style="ellipse;aspect=fixed;strokeWidth=2;whiteSpace=wrap;rounded=0;fillColor=#b0e3e6;strokeColor=#0e8088;" vertex="1" parent="1">
                    <mxGeometry x="617" y="413.5" width="60" height="60" as="geometry"/>
                </mxCell>
                <mxCell id="23" value="exploited&lt;br&gt;by" style="edgeStyle=orthogonalEdgeStyle;html=1;exitX=0;exitY=0.5;exitDx=0;exitDy=0;entryX=0;entryY=0.5;entryDx=0;entryDy=0;rounded=0;" edge="1" parent="1" source="5" target="7">
                    <mxGeometry relative="1" as="geometry">
                        <Array as="points">
                            <mxPoint x="440" y="585"/>
                            <mxPoint x="440" y="750"/>
                        </Array>
                    </mxGeometry>
                </mxCell>
                <mxCell id="5" value="Vulnerability" style="ellipse;aspect=fixed;strokeWidth=2;whiteSpace=wrap;rounded=0;fillColor=#f8cecc;strokeColor=#b85450;" vertex="1" parent="1">
                    <mxGeometry x="460" y="540" width="90" height="90" as="geometry"/>
                </mxCell>
                <mxCell id="24" value="give&lt;br&gt;access&lt;br&gt;to" style="edgeStyle=none;html=1;exitX=0;exitY=1;exitDx=0;exitDy=0;entryX=1;entryY=0;entryDx=0;entryDy=0;rounded=0;" edge="1" parent="1" source="6" target="2">
                    <mxGeometry relative="1" as="geometry"/>
                </mxCell>
                <mxCell id="6" value="Credentials" style="ellipse;aspect=fixed;strokeWidth=2;whiteSpace=wrap;rounded=0;fillColor=#bac8d3;strokeColor=#23445d;" vertex="1" parent="1">
                    <mxGeometry x="460" y="240" width="90" height="90" as="geometry"/>
                </mxCell>
                <mxCell id="28" value="targets" style="edgeStyle=orthogonalEdgeStyle;html=1;exitX=1;exitY=0.5;exitDx=0;exitDy=0;entryX=1;entryY=0.5;entryDx=0;entryDy=0;rounded=0;" edge="1" parent="1" source="7" target="5">
                    <mxGeometry relative="1" as="geometry">
                        <Array as="points">
                            <mxPoint x="570" y="750"/>
                            <mxPoint x="570" y="585"/>
                        </Array>
                    </mxGeometry>
                </mxCell>
                <mxCell id="7" value="Exploit" style="ellipse;aspect=fixed;strokeWidth=2;whiteSpace=wrap;rounded=0;fillColor=#fad9d5;strokeColor=#ae4132;" vertex="1" parent="1">
                    <mxGeometry x="475" y="720" width="60" height="60" as="geometry"/>
                </mxCell>
                <mxCell id="8" value="Operating&#10;System" style="ellipse;aspect=fixed;strokeWidth=2;whiteSpace=wrap;rounded=0;fillColor=#ffe6cc;strokeColor=#d79b00;" vertex="1" parent="1">
                    <mxGeometry x="308.5" y="230" width="90" height="90" as="geometry"/>
                </mxCell>
                <mxCell id="9" value="File" style="ellipse;aspect=fixed;strokeWidth=2;whiteSpace=wrap;rounded=0;fillColor=#dae8fc;strokeColor=#6c8ebf;" vertex="1" parent="1">
                    <mxGeometry x="230" y="330" width="60" height="60" as="geometry"/>
                </mxCell>
                <mxCell id="11" value="User" style="ellipse;aspect=fixed;strokeWidth=2;whiteSpace=wrap;rounded=0;fillColor=#fff2cc;strokeColor=#d6b656;" vertex="1" parent="1">
                    <mxGeometry x="210" y="413.5" width="60" height="60" as="geometry"/>
                </mxCell>
                <mxCell id="29" value="used&lt;br&gt;by" style="edgeStyle=orthogonalEdgeStyle;html=1;exitX=0.5;exitY=0;exitDx=0;exitDy=0;entryX=0.5;entryY=1;entryDx=0;entryDy=0;rounded=0;" edge="1" parent="1" source="12" target="7">
                    <mxGeometry relative="1" as="geometry"/>
                </mxCell>
                <mxCell id="30" style="edgeStyle=orthogonalEdgeStyle;html=1;exitX=0;exitY=0.5;exitDx=0;exitDy=0;entryX=0.5;entryY=1;entryDx=0;entryDy=0;rounded=0;" edge="1" parent="1" source="12" target="2">
                    <mxGeometry relative="1" as="geometry"/>
                </mxCell>
                <mxCell id="31" value="used&lt;br&gt;on" style="edgeLabel;html=1;align=center;verticalAlign=middle;resizable=0;points=[];rounded=0;" vertex="1" connectable="0" parent="30">
                    <mxGeometry x="0.1641" y="1" relative="1" as="geometry">
                        <mxPoint as="offset"/>
                    </mxGeometry>
                </mxCell>
                <mxCell id="12" value="Tool" style="ellipse;aspect=fixed;strokeWidth=2;whiteSpace=wrap;rounded=0;fillColor=#e1d5e7;strokeColor=#9673a6;" vertex="1" parent="1">
                    <mxGeometry x="475" y="840" width="60" height="60" as="geometry"/>
                </mxCell>
            </root>
        </mxGraphModel>
    </diagram>
</mxfile>